<svg width="80" height="80" viewBox="0 0 80 80" fill="none" xmlns="http://www.w3.org/2000/svg">
<path fill-rule="evenodd" clip-rule="evenodd" d="M40 0C17.9432 0 0 17.9432 0 40C0 62.0568 17.9432 80 40 80C62.0568 80 80 62.0568 80 40C80 17.9432 62.0568 0 40 0ZM41.4118 77.3831L42.4079 75.6592L40.1729 74.3688L40 74.6682L39.8272 74.3688L37.5922 75.6592L38.5883 77.3831C18.6077 76.6374 2.58073 60.1585 2.58073 39.9998C2.58073 33.6941 4.15505 27.7521 6.92136 22.5354L7.915 24.2555L10.1499 23.245L9.97707 23.2258H10.3228V20.6448H8.34313C14.9767 9.03197 26.6839 3.14032 40 3.14032C53.3162 3.14032 65.0234 9.03197 71.6569 20.6448H69.6775V23.2255H70.0233L69.8504 23.2448L72.0853 24.3958L73.079 22.6048C75.8456 27.8214 77.4196 33.7299 77.4196 40.0345C77.4193 60.1934 61.3924 76.6374 41.4118 77.3831ZM29.4962 61.6413L26.7989 56.9695L29.0338 55.6792L31.7311 60.351L29.4962 61.6413ZM34.8922 70.9874L32.1948 66.3156L34.4297 65.0253L37.1271 69.6971L34.8922 70.9874ZM18.7046 42.9486L16.0073 38.2768L18.2421 36.9865L20.9395 41.6583L18.7046 42.9486ZM13.3089 33.6025L10.6116 28.9307L12.8465 27.6403L15.5438 32.3121L13.3089 33.6025ZM27.0968 20.6453H32.2582V23.226H27.0968V20.6453ZM15.4839 20.6453H20.6453V23.226H15.4839V20.6453ZM47.7419 20.6453H52.9033V23.226H47.7419V20.6453ZM59.355 20.6453H64.5164V23.226H59.355V20.6453ZM45.1057 70.9812L42.8705 69.6911L45.5675 65.0185L47.8026 66.3086L45.1057 70.9812ZM55.6568 47.55L54.0581 46.6249L52.7653 48.8571L54.3665 49.7849L53.6633 51.0029L55.898 52.2933L58.5963 47.621L56.3613 46.3306L55.6568 47.55ZM50.5011 61.6365L48.266 60.3464L50.9629 55.6738L53.1981 56.9639L50.5011 61.6365ZM61.2918 42.9443L59.0566 41.6542L61.7536 36.9816L63.9887 38.2717L61.2918 42.9443ZM66.6872 33.5986L64.4521 32.3085L67.149 27.636L69.3842 28.9261L66.6872 33.5986ZM38.7097 64.516H41.2904V69.6774H38.7097V64.516ZM15.0063 24.0831L19.3916 26.6163L18.1007 28.8509L13.7154 26.3177L15.0063 24.0831ZM52.7602 48.8544L54.053 46.6195L52.6466 45.8066L55.7666 32.391L57.5138 31.3819L56.2234 29.1469L54.4724 30.1585L41.2904 26.1598V24.5164V24.5158V23.226H42.5807V20.6453H37.4193V23.226H38.7097V24.5158V24.5164V26.1598L25.5265 30.1571L23.7756 29.1456L22.4852 31.3805L24.2324 32.3896L27.3537 45.8063L25.9474 46.6206L27.2401 48.8528L28.6454 48.0399L38.7099 57.4617V59.3547H41.2906V57.4631L51.3538 48.0424L52.7602 48.8544ZM38.7098 53.9263L29.9976 45.7701L27.2982 34.161L38.7098 40.7521V53.9263ZM28.5885 31.9265L40 28.466L51.4115 31.9265L40 38.5176L28.5885 31.9265ZM41.2904 53.9277V40.7522L52.702 34.1625L50.0026 45.7729L41.2904 53.9277ZM27.235 48.8558L25.942 46.6235L24.3432 47.5486L23.6401 46.3306L21.4051 47.621L24.1032 52.2933L26.3381 51.0029L25.6336 49.7836L27.235 48.8558ZM66.2854 26.3114L61.9002 28.8446L60.6093 26.61L64.9946 24.0767L66.2854 26.3114Z" fill="#EAEAEA"/>
</svg>
