<svg width="68" height="80" viewBox="0 0 68 80" fill="none" xmlns="http://www.w3.org/2000/svg">
<path fill-rule="evenodd" clip-rule="evenodd" d="M61.9352 27.0964H43.0283L43.9469 21.5893L33.5483 8.2204L23.1497 21.5893L24.0683 27.0964H5.16136C2.31486 27.0964 0 29.4113 0 32.2578V65.8061C0 68.6526 2.31486 70.9675 5.16136 70.9675H21.9355V77.4192H16.7741V79.9998H21.9355H45.1611H50.3224V77.4192H45.1611V70.9675H61.9352C64.7817 70.9675 67.0966 68.6526 67.0966 65.8061V32.2578C67.0966 29.4113 64.7817 27.0964 61.9352 27.0964ZM33.5483 21.9354C34.2607 21.9354 34.8387 22.5147 34.8387 23.2257C34.8387 23.9367 34.2607 24.5161 33.5483 24.5161C32.836 24.5161 32.258 23.9367 32.258 23.2257C32.258 22.5147 32.836 21.9354 33.5483 21.9354ZM32.2579 14.0836V19.5934C30.7598 20.1275 29.6773 21.5471 29.6773 23.227C29.6773 25.3612 31.4142 27.0981 33.5483 27.0981C35.6824 27.0981 37.4193 25.3612 37.4193 23.227C37.4193 21.5471 36.3368 20.1277 34.8386 19.5934V14.0836L41.2142 22.2808L38.9072 36.1286H28.1886L25.8816 22.2808L32.2579 14.0836ZM27.0969 38.7095H40C40.7121 38.7095 41.2901 39.2889 41.2901 39.9999C41.2901 40.7109 40.7121 41.2902 39.9997 41.2902H27.0969C26.3845 41.2902 25.8065 40.7109 25.8065 39.9999C25.8065 39.2889 26.3845 38.7095 27.0969 38.7095ZM38.7108 52.9029H28.387V43.8708H38.7094L38.7108 52.9029ZM25.6231 36.4229C24.2178 37.0049 23.2256 38.3869 23.2256 39.9997C23.2256 41.6797 24.3081 43.099 25.8062 43.6333V52.9031C25.8062 54.3262 26.9635 55.4837 28.3869 55.4837H38.7094C40.1325 55.4837 41.2901 54.3264 41.2901 52.9031V43.6333C42.7882 43.0992 43.8707 41.6797 43.8707 39.9997C43.8707 38.3869 42.8785 37.0049 41.4732 36.4229L41.7377 34.8383H59.3543V63.2252H7.74202V34.8383H25.3586L25.6231 36.4229ZM42.5804 77.4187H24.5159V70.967H42.5804V77.4187ZM64.5162 65.806C64.5159 67.2291 63.3586 68.3867 61.9352 68.3867H45.1611H21.9355H5.16135C3.73824 68.3867 2.58067 67.2294 2.58067 65.806V32.2577C2.58067 30.8346 3.73797 29.6771 5.16135 29.6771H24.498L24.9278 32.2577H5.16135V65.806H61.9352V32.2577H42.1677L42.5975 29.6771H61.9355C63.3586 29.6771 64.5162 30.8344 64.5162 32.2577V65.806ZM12.9034 7.74177C14.5834 7.74177 16.0027 6.65926 16.5371 5.16109H24.2918C19.7293 7.8992 16.4802 12.5828 15.6906 18.0642H12.9034V25.806H20.6452V18.0645H18.2981C19.5315 10.7536 25.8916 5.16136 33.5483 5.16136C41.205 5.16136 47.5651 10.7536 48.7985 18.0645H46.4514V25.8063H54.1932V18.0645H51.406C50.6165 12.5831 47.3659 7.89947 42.8048 5.16136H49.2692C49.8033 6.65953 51.2229 7.74204 52.9029 7.74204C55.037 7.74204 56.7739 6.00515 56.7739 3.87102C56.7739 1.73689 55.0373 0 52.9031 0C51.2231 0 49.8038 1.08251 49.2695 2.58068H16.5368C16.0027 1.08251 14.5834 0 12.9034 0C10.7693 0 9.03238 1.73689 9.03238 3.87102C9.03238 6.00515 10.769 7.74177 12.9034 7.74177ZM18.0645 23.2257H15.4838V20.645H18.0645V23.2257ZM49.0321 20.645H51.6128V23.2257H49.0321V20.645ZM52.9031 2.58083C53.6155 2.58083 54.1934 3.16015 54.1934 3.87117C54.1934 4.58218 53.6155 5.16151 52.9031 5.16151C52.1907 5.16151 51.6128 4.58218 51.6128 3.87117C51.6128 3.16015 52.1907 2.58083 52.9031 2.58083ZM12.9034 2.58083C13.6158 2.58083 14.1937 3.16015 14.1937 3.87117C14.1937 4.58218 13.6158 5.16151 12.9034 5.16151C12.191 5.16151 11.6131 4.58218 11.6131 3.87117C11.6131 3.16015 12.191 2.58083 12.9034 2.58083ZM43.8708 49.032H46.4515V51.6127H43.8708V49.032ZM49.0321 49.032H51.6128V51.6127H49.0321V49.032ZM54.1935 49.032H56.7742V51.6127H54.1935V49.032ZM10.3227 49.032H12.9034V51.6127H10.3227V49.032ZM15.4838 49.032H18.0645V51.6127H15.4838V49.032ZM20.6452 49.032H23.2259V51.6127H20.6452V49.032Z" fill="#EAEAEA"/>
</svg>
