<svg width="81" height="80" viewBox="0 0 81 80" fill="none" xmlns="http://www.w3.org/2000/svg">
<path fill-rule="evenodd" clip-rule="evenodd" d="M40.1531 20.6497C31.6167 20.6497 24.6724 27.594 24.6724 36.1304C24.6724 41.6957 27.6175 46.758 32.4126 49.5251V50.9828C31.6334 51.5723 31.1225 52.4972 31.1225 53.5476C31.1225 54.2763 31.3742 54.9422 31.783 55.4827C31.3739 56.0218 31.1225 56.6877 31.1225 57.4164C31.1225 59.1955 32.5686 60.6416 34.3477 60.6416H45.9581C47.7372 60.6416 49.1833 59.1955 49.1833 57.4164C49.1833 56.6877 48.9317 56.0218 48.5229 55.4813C48.9319 54.9408 49.1833 54.2752 49.1833 53.5462C49.1833 52.4961 48.6724 51.5713 47.8933 50.9815V49.5237C52.6884 46.7566 55.6335 41.6957 55.6335 36.129C55.6337 27.594 48.6895 20.6497 40.1531 20.6497ZM45.9584 58.0611H34.348C33.9931 58.0611 33.703 57.771 33.703 57.4161C33.703 57.0612 33.9931 56.771 34.348 56.771H45.9584C46.3133 56.771 46.6035 57.0612 46.6035 57.4161C46.6037 57.771 46.3133 58.0611 45.9584 58.0611ZM45.9584 54.1914H34.348C33.9931 54.1914 33.703 53.9013 33.703 53.5464C33.703 53.1915 33.9931 52.9013 34.348 52.9013H45.9584C46.3133 52.9013 46.6035 53.1915 46.6035 53.5464C46.6035 53.9013 46.3133 54.1914 45.9584 54.1914ZM46.015 47.6094L45.3134 47.9705V50.321H41.4431V41.1073C43.6632 40.5305 45.3134 38.5271 45.3134 36.1304C45.3134 33.2845 42.999 30.9701 40.153 30.9701C37.3071 30.9701 34.9927 33.2845 34.9927 36.1304C34.9927 38.5274 36.6426 40.5308 38.863 41.1073V50.321H34.9927V47.9705L34.2911 47.6105C29.95 45.389 27.2525 40.99 27.2525 36.1304C27.2525 29.0171 33.0397 23.2299 40.153 23.2299C47.2663 23.2299 53.0536 29.0171 53.0536 36.1304C53.0536 40.9902 50.3564 45.3893 46.015 47.6094ZM79.2163 47.9951C78.312 43.8632 76.7794 39.6936 74.7102 35.6093C77.7187 25.312 76.3833 15.7645 70.3859 9.76817C65.0438 4.42743 56.8585 2.63291 47.3211 4.71893C46.3935 4.92157 45.4648 5.16918 44.5345 5.44009C40.4516 3.37331 36.2858 1.84212 32.1565 0.939176C21.6151 -1.36872 12.5615 0.610019 6.66218 6.50965C0.762543 12.4093 -1.21484 21.4639 1.09035 32.0051C1.99465 36.137 3.52584 40.3066 5.59533 44.3909C2.53132 54.8313 3.98666 64.3002 9.91961 70.2331C13.8091 74.1226 19.2067 76.13 25.5344 76.13C27.8978 76.13 30.3916 75.8488 32.9831 75.2824C33.9107 75.0797 34.8394 74.8321 35.7697 74.5612C39.8526 76.628 44.0184 78.1592 48.1476 79.0621C51.0179 79.689 53.7774 80 56.3936 80C63.3858 80 69.3497 77.7837 73.6428 73.4903C79.5435 67.5923 81.5212 58.5373 79.2163 47.9951ZM68.5616 11.5926C73.3941 16.4251 74.7628 23.9551 72.9181 32.3159C70.0129 27.3555 66.3144 22.5734 61.9462 18.2066C57.5794 13.8384 52.7973 10.14 47.8369 7.2347C56.123 5.4093 63.6798 6.71103 68.5616 11.5926ZM3.61087 31.4537C1.49911 21.8014 3.23024 13.5904 8.48591 8.33335C12.2814 4.53789 17.6156 2.58109 23.9241 2.58109C26.3506 2.58109 28.9229 2.87124 31.6063 3.45831C34.741 4.14452 37.9044 5.21029 41.0326 6.61496C33.7904 9.37311 26.6551 14.0843 20.4461 20.2933C18.2002 22.5391 16.1373 24.9413 14.2796 27.4337C13.6926 27.2324 13.0722 27.0996 12.4168 27.0996C9.21629 27.0996 6.61148 29.7042 6.61148 32.905C6.61148 34.5548 7.3107 36.0373 8.41873 37.0952C7.80972 38.3671 7.25381 39.6339 6.77267 40.8906C5.36556 37.7581 4.29736 34.5925 3.61087 31.4537ZM15.6424 32.9054C15.6424 34.6831 14.1962 36.1306 12.4172 36.1306C10.6381 36.1306 9.19198 34.6831 9.19198 32.9054C9.19198 31.1277 10.6381 29.6802 12.4172 29.6802C14.1962 29.6802 15.6424 31.1277 15.6424 32.9054ZM11.7447 68.4087C6.97807 63.642 5.53303 56.1673 7.40123 47.7073C10.3038 52.6598 13.9985 57.433 18.3601 61.7933C22.7283 66.1628 27.5104 69.8626 32.4732 72.7679C24.1847 74.5946 16.6279 73.2929 11.7447 68.4087ZM40.1531 38.7107C38.7302 38.7107 37.5729 37.5536 37.5729 36.1305C37.5729 34.7077 38.73 33.5504 40.1531 33.5504C41.5762 33.5504 42.7332 34.7074 42.7332 36.1305C42.7335 37.5534 41.5764 38.7107 40.1531 38.7107ZM20.1838 59.9696C15.3102 55.0959 11.3045 49.6993 8.35911 44.1315C8.96297 42.2533 9.73697 40.3388 10.6516 38.4064C11.2115 38.5871 11.7972 38.7109 12.4163 38.7109C15.6168 38.7109 18.2216 36.1063 18.2216 32.9055C18.2216 31.2931 17.5584 29.8353 16.4943 28.7812C18.2411 26.4592 20.1722 24.2182 22.2712 22.1181C29.0789 15.3104 36.8489 10.5735 44.2692 8.19843C49.8435 11.1435 55.2438 15.1519 60.1227 20.0307C65.0004 24.9085 69.0085 30.3099 71.955 35.8828C70.5156 40.3583 68.1974 44.9855 65.0329 49.5137C64.3258 49.2054 63.5481 49.0312 62.7288 49.0312C59.5283 49.0312 56.9235 51.6358 56.9235 54.8366C56.9235 56.0156 57.2808 57.1095 57.8871 58.0255C51.1157 64.7544 43.4063 69.4449 36.04 71.8032C30.4657 68.8568 25.063 64.8487 20.1838 59.9696ZM65.9544 54.836C65.9544 56.6151 64.5083 58.0612 62.7292 58.0612C60.9501 58.0612 59.504 56.6151 59.504 54.836C59.504 53.0569 60.9501 51.6108 62.7292 51.6108C64.5083 51.6108 65.9544 53.0569 65.9544 54.836ZM71.8204 71.6675C66.5661 76.9232 58.3588 78.657 48.7 76.5425C45.5653 75.8563 42.4032 74.7906 39.2737 73.3859C46.4785 70.6418 53.5778 65.9629 59.7635 59.8002C60.6342 60.3228 61.6417 60.6414 62.7294 60.6414C65.93 60.6414 68.5348 58.0369 68.5348 54.8361C68.5348 53.3872 67.9827 52.0766 67.1017 51.0587C69.8663 47.1124 72.0154 43.0823 73.5339 39.1102C74.9413 42.2438 76.0095 45.4094 76.6957 48.5482C78.8069 58.1994 77.0758 66.4118 71.8204 71.6675Z" fill="#EAEAEA"/>
</svg>
